HIERARCHY
ROOT Hips
{
	OFFSET 0.000000 0.000000 0.000000
	CHANNELS 6 Xposition Yposition Zposition Zrotation Xrotation Yrotation
	JOINT Spine
	{
		OFFSET 0.000000 -0.000000 0.070167
		CHANNELS 6 Xposition Yposition Zposition Zrotation Xrotation Yrotation
		JOINT Spine1
		{
			OFFSET 0.000000 -0.000000 0.166666
			CHANNELS 6 Xposition Yposition Zposition Zrotation Xrotation Yrotation
			JOINT Neck
			{
				OFFSET 0.000000 -0.000000 0.183780
				CHANNELS 6 Xposition Yposition Zposition Zrotation Xrotation Yrotation
				JOINT Head
				{
					OFFSET 0.000000 -0.017114 0.132633
					CHANNELS 6 Xposition Yposition Zposition Zrotation Xrotation Yrotation
					End Site
					{
						OFFSET 0.000000 -0.000000 0.171140
					}
				}
			}
			JOINT LeftShoulder
			{
				OFFSET 0.034466 0.004091 0.144174
				CHANNELS 6 Xposition Yposition Zposition Zrotation Xrotation Yrotation
				JOINT LeftArm
				{
					OFFSET 0.121044 0.000000 0.000000
					CHANNELS 6 Xposition Yposition Zposition Zrotation Xrotation Yrotation
					JOINT LeftForeArm
					{
						OFFSET 0.257070 0.000000 0.000000
						CHANNELS 6 Xposition Yposition Zposition Zrotation Xrotation Yrotation
						JOINT LeftHand
						{
							OFFSET 0.224060 0.000000 0.000000
							CHANNELS 6 Xposition Yposition Zposition Zrotation Xrotation Yrotation
							End Site
							{
								OFFSET 0.128355 0.000000 0.000000
							}
						}
					}
				}
			}
			JOINT RightShoulder
			{
				OFFSET -0.033538 0.004091 0.144174
				CHANNELS 6 Xposition Yposition Zposition Zrotation Xrotation Yrotation
				JOINT RightArm
				{
					OFFSET -0.121044 0.000000 0.000000
					CHANNELS 6 Xposition Yposition Zposition Zrotation Xrotation Yrotation
					JOINT RightForeArm
					{
						OFFSET -0.257070 0.000000 0.000000
						CHANNELS 6 Xposition Yposition Zposition Zrotation Xrotation Yrotation
						JOINT RightHand
						{
							OFFSET -0.224060 0.000000 0.000000
							CHANNELS 6 Xposition Yposition Zposition Zrotation Xrotation Yrotation
							End Site
							{
								OFFSET -0.128355 0.000000 0.000000
							}
						}
					}
				}
			}
		}
	}
	JOINT LeftUpLeg
	{
		OFFSET 0.085570 0.000000 0.000000
		CHANNELS 6 Xposition Yposition Zposition Zrotation Xrotation Yrotation
		JOINT LeftLeg
		{
			OFFSET 0.000000 0.000000 -0.385526
			CHANNELS 6 Xposition Yposition Zposition Zrotation Xrotation Yrotation
			JOINT LeftFoot
			{
				OFFSET 0.000000 0.000000 -0.365921
				CHANNELS 6 Xposition Yposition Zposition Zrotation Xrotation Yrotation
				JOINT LeftToeBase
				{
					OFFSET 0.000000 -0.128355 -0.055620
					CHANNELS 6 Xposition Yposition Zposition Zrotation Xrotation Yrotation
					End Site
					{
						OFFSET 0.000000 -0.034228 0.000000
					}
				}
			}
		}
	}
	JOINT RightUpLeg
	{
		OFFSET -0.085570 0.000000 0.000000
		CHANNELS 6 Xposition Yposition Zposition Zrotation Xrotation Yrotation
		JOINT RightLeg
		{
			OFFSET 0.000000 0.000000 -0.385526
			CHANNELS 6 Xposition Yposition Zposition Zrotation Xrotation Yrotation
			JOINT RightFoot
			{
				OFFSET 0.000000 0.000000 -0.365921
				CHANNELS 6 Xposition Yposition Zposition Zrotation Xrotation Yrotation
				JOINT RightToeBase
				{
					OFFSET 0.000000 -0.128355 -0.055620
					CHANNELS 6 Xposition Yposition Zposition Zrotation Xrotation Yrotation
					End Site
					{
						OFFSET 0.000000 -0.034228 0.000000
					}
				}
			}
		}
	}
}
MOTION
Frames: 9
Frame Time: 0.016667
-0.020096 -0.591952 0.812398 -111.858814 -2.583749 -2.460229 -0.000000 -0.000000 0.070167 -3.557197 1.329962 1.675048 -0.000000 -0.000000 0.166666 -0.833183 8.627141 -4.510052 -0.000000 -0.000000 0.183780 7.725967 6.942253 -10.318507 -0.000000 -0.017114 0.132633 8.965281 6.410154 3.869606 0.034466 0.004091 0.144174 -9.904885 3.671068 -2.870468 0.121044 0.000000 0.000000 -28.897479 -9.829263 60.624670 0.257070 -0.000000 -0.000000 -27.854307 15.700749 2.404764 0.224060 0.000000 -0.000000 -8.936096 15.620084 8.690226 -0.033538 0.004091 0.144174 -13.385360 5.292927 5.849683 -0.121044 0.000000 0.000000 64.873526 11.576205 -62.143233 -0.257070 -0.000000 -0.000000 61.853141 16.185663 21.084980 -0.224060 -0.000000 -0.000000 10.972429 3.300248 -2.837048 0.085570 0.000000 0.000000 15.008393 1.627441 -6.782125 0.000000 0.000000 -0.385526 3.990597 48.798420 0.846566 -0.000000 0.000000 -0.365921 -21.256630 -7.876962 4.086399 -0.000000 -0.128355 -0.055620 -0.000001 0.000005 0.000000 -0.085570 0.000000 -0.000000 -7.585926 -5.616006 -1.678769 -0.000000 0.000000 -0.385526 21.241673 13.414291 -10.392833 0.000000 0.000000 -0.365921 -25.260818 -14.146983 4.138185 0.000000 -0.128355 -0.055620 -0.000002 -0.000000 -0.000001 
-0.023745 -0.589205 0.812131 -113.907680 -2.571199 -2.358281 -0.000000 -0.000000 0.070167 -3.315230 1.367771 1.537889 0.000000 -0.000000 0.166666 -0.771308 8.573354 -4.304159 0.000000 -0.000000 0.183780 7.983261 6.985377 -9.629046 0.000000 -0.017114 0.132633 9.097254 6.465541 2.754734 0.034466 0.004091 0.144174 -9.571540 4.059698 -2.732265 0.121044 -0.000000 -0.000000 -28.323386 -9.681231 60.982197 0.257070 0.000000 -0.000000 -27.602427 16.209642 2.944139 0.224060 0.000000 -0.000000 -7.597159 16.390695 8.043532 -0.033538 0.004091 0.144174 -13.567513 5.503537 5.893750 -0.121044 0.000000 0.000000 65.568368 11.159322 -61.865039 -0.257070 0.000000 0.000000 61.738292 16.158590 21.327605 -0.224060 0.000000 0.000000 11.031186 3.116692 -3.163376 0.085570 -0.000000 -0.000000 14.494392 1.351690 -6.735956 -0.000000 0.000000 -0.385526 4.087652 49.248714 0.728374 0.000000 0.000000 -0.365921 -20.912347 -8.233179 3.714534 -0.000000 -0.128355 -0.055620 0.000001 -0.000003 -0.000001 -0.085570 -0.000000 -0.000000 -7.814559 -5.270321 -1.773094 -0.000000 0.000000 -0.385526 21.766723 13.473191 -10.605710 -0.000000 0.000000 -0.365921 -25.370273 -14.357799 3.911694 0.000000 -0.128355 -0.055620 0.000002 0.000002 0.000002 
-0.027348 -0.586470 0.811970 -116.030448 -2.544793 -2.319735 0.000000 -0.000000 0.070167 -2.991008 1.337745 1.429079 -0.000000 -0.000000 0.166666 -0.680536 8.591353 -4.072967 -0.000000 -0.000000 0.183780 7.878435 7.131792 -9.376800 0.000000 -0.017114 0.132633 8.946591 6.648707 2.617336 0.034466 0.004091 0.144174 -9.241906 3.927597 -2.730604 0.121044 0.000000 -0.000000 -27.570229 -9.262788 61.658221 0.257070 0.000000 -0.000000 -27.305037 16.771576 3.498374 0.224060 0.000000 0.000000 -7.818264 17.008392 8.802258 -0.033538 0.004091 0.144174 -13.339019 5.333032 5.897649 -0.121044 0.000000 0.000000 65.666415 10.836337 -62.067568 -0.257070 0.000000 0.000000 61.970989 16.113304 21.295505 -0.224060 -0.000000 -0.000000 10.846349 3.058880 -2.909541 0.085570 -0.000000 -0.000000 14.079130 1.167708 -6.595918 0.000000 0.000000 -0.385526 4.175407 49.447209 0.579263 0.000000 0.000000 -0.365921 -20.434813 -8.702055 3.219645 0.000000 -0.128355 -0.055620 0.000002 0.000006 0.000001 -0.085570 -0.000000 -0.000000 -7.891335 -4.961392 -1.787309 0.000000 0.000000 -0.385526 22.509631 13.469273 -10.894395 -0.000000 0.000000 -0.365921 -25.858750 -14.558999 3.940185 0.000000 -0.128355 -0.055620 -0.000001 -0.000000 -0.000000 
-0.031373 -0.583157 0.812081 -118.484589 -2.554140 -2.366537 -0.000000 -0.000000 0.070167 -2.448036 1.131981 1.562001 0.000000 0.000000 0.166666 -0.494525 8.857068 -4.020414 0.000000 -0.000000 0.183780 7.924182 6.708184 -8.861855 0.000000 -0.017114 0.132633 8.949547 7.612376 1.824635 0.034466 0.004091 0.144174 -8.791238 4.081612 -2.658653 0.121044 -0.000000 0.000000 -26.947540 -9.010271 62.161039 0.257070 -0.000000 0.000000 -27.134854 17.172748 3.798535 0.224060 0.000000 -0.000000 -7.947191 17.431865 9.276393 -0.033538 0.004091 0.144174 -13.324984 5.301334 5.911131 -0.121044 0.000000 0.000000 66.286173 10.730320 -62.047255 -0.257070 -0.000000 -0.000000 62.082342 16.130820 21.575104 -0.224060 -0.000000 -0.000000 10.797427 2.884595 -2.788446 0.085570 0.000000 0.000000 14.041096 1.209053 -6.464464 0.000000 0.000000 -0.385526 4.151804 49.365687 0.615901 -0.000000 0.000000 -0.365921 -19.806331 -9.148608 2.688023 -0.000000 -0.128355 -0.055620 -0.000001 -0.000003 -0.000001 -0.085570 0.000000 0.000000 -7.558100 -4.572494 -1.762324 0.000000 0.000000 -0.385526 22.671203 13.528090 -10.940258 -0.000000 0.000000 -0.365921 -25.674473 -14.593039 4.174896 0.000000 -0.128355 -0.055620 0.000002 -0.000000 -0.000000 
-0.035031 -0.580306 0.811972 -120.240508 -2.577239 -2.131973 0.000000 -0.000000 0.070167 -2.347030 1.169352 1.143471 0.000000 -0.000000 0.166666 -0.492698 8.833761 -3.638567 0.000000 -0.000000 0.183780 7.883109 6.476480 -8.431303 0.000000 -0.017114 0.132633 8.863641 8.296317 1.142355 0.034466 0.004091 0.144174 -8.435250 4.317782 -2.625282 0.121044 0.000000 -0.000000 -26.376548 -8.677212 62.551624 0.257070 0.000000 -0.000000 -27.132139 17.410074 4.228986 0.224060 0.000000 0.000000 -7.690736 17.810878 8.916559 -0.033538 0.004091 0.144174 -13.562907 5.579000 5.944909 -0.121044 -0.000000 0.000000 66.660836 10.080727 -61.780140 -0.257070 0.000000 0.000000 62.154920 15.965262 21.484386 -0.224060 -0.000000 0.000000 10.684672 2.753415 -2.789495 0.085570 -0.000000 -0.000000 13.147758 0.966585 -6.463114 -0.000000 0.000000 -0.385526 4.112744 49.478983 0.726451 -0.000000 0.000000 -0.365921 -19.139524 -10.081858 1.829970 -0.000000 -0.128355 -0.055620 -0.000001 0.000002 -0.000001 -0.085570 -0.000000 -0.000000 -8.019043 -4.071171 -1.943159 -0.000000 -0.000000 -0.385526 22.917592 13.463046 -10.936662 -0.000000 0.000000 -0.365921 -25.436074 -14.498914 4.386861 0.000000 -0.128355 -0.055620 -0.000002 -0.000001 0.000000 
-0.038417 -0.577620 0.811541 -122.230019 -2.523656 -1.989030 -0.000000 0.000000 0.070167 -2.037259 1.193952 0.894329 -0.000000 -0.000000 0.166666 -0.412579 8.759072 -3.377047 0.000000 -0.000000 0.183780 7.785500 6.585313 -8.147263 -0.000000 -0.017114 0.132633 8.717598 8.537179 0.833419 0.034466 0.004091 0.144174 -8.167822 4.370856 -2.559111 0.121044 -0.000000 0.000000 -25.399281 -8.371813 63.069058 0.257070 0.000000 -0.000000 -27.151834 17.622643 4.690152 0.224060 0.000000 0.000000 -8.757488 17.978677 9.892817 -0.033538 0.004091 0.144174 -13.246395 5.332483 5.823583 -0.121044 -0.000000 0.000000 66.707302 10.045962 -62.128432 -0.257070 0.000000 0.000000 62.452593 15.965560 21.555182 -0.224060 0.000000 -0.000000 10.617548 2.643333 -2.670892 0.085570 0.000000 -0.000000 12.565770 0.612898 -6.376443 0.000000 0.000000 -0.385526 4.175253 49.402721 0.611464 -0.000000 0.000000 -0.365921 -17.248572 -9.977212 1.225592 -0.000000 -0.128355 -0.055620 0.000003 0.000000 -0.000002 -0.085570 0.000000 -0.000000 -8.184442 -3.736969 -2.043897 -0.000000 0.000000 -0.385526 22.965055 13.504717 -10.917220 -0.000000 0.000000 -0.365921 -24.985233 -14.690704 4.560763 -0.000000 -0.128355 -0.055620 0.000003 0.000000 0.000001 
-0.041981 -0.574579 0.811339 -124.281863 -2.508486 -1.884390 0.000000 -0.000000 0.070167 -1.689136 1.172574 0.678512 -0.000000 -0.000000 0.166666 -0.323457 8.778644 -3.027677 0.000000 0.000000 0.183780 7.586820 6.986875 -7.969508 -0.000000 -0.017114 0.132633 8.456724 8.257921 0.783498 0.034466 0.004091 0.144174 -7.843923 4.463686 -2.574486 0.121044 0.000000 0.000000 -24.414373 -8.013200 63.522153 0.257070 -0.000000 0.000000 -27.288206 18.183265 5.128016 0.224060 -0.000000 0.000000 -7.357595 18.823776 8.852892 -0.033538 0.004091 0.144174 -13.048564 5.221193 5.670490 -0.121044 0.000000 -0.000000 66.997346 9.995941 -62.476820 -0.257070 0.000000 -0.000000 62.578487 16.006483 21.931326 -0.224060 0.000000 0.000000 10.571507 2.392436 -2.900751 0.085570 -0.000000 -0.000000 12.172319 0.216556 -6.286641 0.000000 0.000000 -0.385526 4.211584 49.339388 0.552522 0.000000 0.000000 -0.365921 -16.008864 -10.055474 0.743110 0.000000 -0.128355 -0.055620 -0.000000 0.000000 -0.000001 -0.085570 -0.000000 -0.000000 -8.062202 -3.364522 -2.100754 -0.000000 0.000000 -0.385526 22.952576 13.532204 -10.873699 -0.000000 0.000000 -0.365921 -24.509388 -14.608200 4.715017 -0.000000 -0.128355 -0.055620 0.000001 0.000003 -0.000000 
-0.045675 -0.571433 0.811329 -126.314855 -2.480184 -1.829023 -0.000000 -0.000000 0.070167 -1.277539 1.114357 0.625780 -0.000000 -0.000000 0.166666 -0.193053 8.800046 -2.938862 -0.000000 -0.000000 0.183780 7.342562 7.414395 -7.598706 0.000000 -0.017114 0.132633 8.128047 7.941694 0.611124 0.034466 0.004091 0.144174 -7.531155 4.544293 -2.466912 0.121044 -0.000000 -0.000000 -23.450182 -7.682910 63.947045 0.257070 0.000000 0.000000 -27.506546 18.293149 5.609381 0.224060 -0.000000 -0.000000 -8.499653 18.921683 9.546378 -0.033538 0.004091 0.144174 -13.536611 5.626479 5.851672 -0.121044 -0.000000 -0.000000 67.656596 9.430608 -62.145344 -0.257070 -0.000000 -0.000000 62.563781 15.799394 22.051244 -0.224060 -0.000000 0.000000 10.684420 2.094922 -2.973517 0.085570 0.000000 0.000000 11.882775 0.085974 -6.090381 0.000000 0.000000 -0.385526 4.511124 48.982951 -0.204218 -0.000000 0.000000 -0.365921 -16.189213 -10.803837 0.337046 0.000000 -0.128355 -0.055620 0.000001 -0.000001 -0.000001 -0.085570 -0.000000 -0.000000 -7.933443 -2.991331 -2.119659 -0.000000 0.000000 -0.385526 23.005052 13.523582 -10.772893 -0.000000 0.000000 -0.365921 -23.979268 -14.521955 4.900776 0.000000 -0.128355 -0.055620 0.000001 -0.000000 0.000001 
-0.049169 -0.568206 0.811134 -128.306060 -2.453433 -1.768457 0.000000 -0.000000 0.070167 -0.928578 1.036919 0.613500 0.000000 -0.000000 0.166666 -0.083828 8.863782 -2.829561 -0.000000 -0.000000 0.183780 6.972811 8.282720 -7.610531 0.000000 -0.017114 0.132633 7.702393 7.022192 1.218824 0.034466 0.004091 0.144174 -7.298875 4.641967 -2.440158 0.121044 0.000000 0.000000 -22.012935 -7.515379 64.385345 0.257070 0.000000 0.000000 -27.731229 18.682152 6.325181 0.224060 0.000000 0.000000 -8.400853 19.514354 9.271213 -0.033538 0.004091 0.144174 -13.411876 5.692358 5.789367 -0.121044 -0.000000 0.000000 67.736338 9.267593 -62.196167 -0.257070 0.000000 -0.000000 62.920311 15.671811 21.999445 -0.224060 0.000000 -0.000000 10.395795 1.904625 -2.996970 0.085570 -0.000000 0.000000 11.623836 -0.263653 -5.922944 0.000000 0.000000 -0.385526 4.776311 48.940447 -0.813637 -0.000000 0.000000 -0.365921 -16.810723 -11.720196 -0.036361 0.000000 -0.128355 -0.055620 0.000001 0.000002 -0.000004 -0.085570 -0.000000 0.000000 -7.739038 -2.672478 -2.153630 -0.000000 0.000000 -0.385526 23.046605 13.600597 -10.667364 0.000000 0.000000 -0.365921 -23.420591 -14.389754 4.808311 0.000000 -0.128355 -0.055620 0.000001 -0.000002 -0.000000 
